<svg xmlns="http://www.w3.org/2000/svg" viewBox="0 0 240 150"><defs><style>.cls-1{fill:#9babc5;}.cls-2{fill:#fff;opacity:0.47;}</style></defs><title>Asset 2</title><g id="Layer_2" data-name="Layer 2"><g id="Layer_1-2" data-name="Layer 1"><rect class="cls-1" width="240" height="150" rx="17.67"/><path class="cls-2" d="M96,22.5A76.59,76.59,0,0,1,19.5,99,76,76,0,0,1,0,96.47v1A77.5,77.5,0,0,0,93.66,0h-1A76.39,76.39,0,0,1,96,22.5Z"/><path class="cls-2" d="M47,25A27,27,0,0,1,0,43.12v1.45A28,28,0,1,0,32.59,0H30.18A27,27,0,0,1,47,25Z"/><path class="cls-2" d="M77,22.5A57.56,57.56,0,0,1,19.5,80,57.31,57.31,0,0,1,0,76.59v1.06A58.3,58.3,0,0,0,19.5,81,58.56,58.56,0,0,0,78,22.5,58.15,58.15,0,0,0,73.49,0H72.41A57.19,57.19,0,0,1,77,22.5Z"/></g></g></svg>