<svg xmlns="http://www.w3.org/2000/svg" viewBox="0 0 240 150"><defs><style>.cls-1{fill:#e94445;}.cls-2{fill:#fff;opacity:0.47;}</style></defs><title>Asset 3</title><g id="Layer_2" data-name="Layer 2"><g id="Layer_1-2" data-name="Layer 1"><rect class="cls-1" width="240" height="150" rx="17.67"/><path class="cls-2" d="M144,22.5A76.59,76.59,0,0,0,220.5,99,76,76,0,0,0,240,96.47v1A77.5,77.5,0,0,1,146.34,0h1A76.39,76.39,0,0,0,144,22.5Z"/><path class="cls-2" d="M193,25a27,27,0,0,0,47,18.12v1.45A28,28,0,1,1,207.41,0h2.41A27,27,0,0,0,193,25Z"/><path class="cls-2" d="M163,22.5A57.56,57.56,0,0,0,220.5,80,57.31,57.31,0,0,0,240,76.59v1.06A58.3,58.3,0,0,1,220.5,81a58.48,58.48,0,0,1-54-81h1.08A57.19,57.19,0,0,0,163,22.5Z"/></g></g></svg>