<svg xmlns="http://www.w3.org/2000/svg" viewBox="0 0 472.81 173.79"><defs><style>.cls-1{fill:#428777;}.cls-2{fill:#fff;opacity:0.47;}</style></defs><title>Asset 1</title><g id="Layer_2" data-name="Layer 2"><g id="Layer_1-2" data-name="Layer 1"><rect class="cls-1" width="472.81" height="173.79" rx="26.69"/><path class="cls-2" d="M376.81,150.79a76.49,76.49,0,0,1,96-74v-1a77.5,77.5,0,0,0-93.66,97.51h1A76,76,0,0,1,376.81,150.79Z"/><path class="cls-2" d="M425.81,148.29a27,27,0,0,1,47-18.12v-1.45a28,28,0,1,0-32.59,44.57h2.4A27,27,0,0,1,425.81,148.29Z"/><path class="cls-2" d="M395.81,150.79a57.49,57.49,0,0,1,77-54.09v-1a58.49,58.49,0,0,0-73.5,77.64h1.08A57.18,57.18,0,0,1,395.81,150.79Z"/></g></g></svg>