<svg xmlns="http://www.w3.org/2000/svg" viewBox="0 0 240 150"><defs><style>.cls-1{fill:#f0ca41;}.cls-2{fill:#fff;opacity:0.47;}</style></defs><title>Asset 4</title><g id="Layer_2" data-name="Layer 2"><g id="Layer_1-2" data-name="Layer 1"><rect class="cls-1" width="240" height="150" rx="17.67"/><path class="cls-2" d="M96,127.5a76.49,76.49,0,0,0-96-74v-1A77.5,77.5,0,0,1,93.66,150h-1A76.39,76.39,0,0,0,96,127.5Z"/><path class="cls-2" d="M47,125A27,27,0,0,0,0,106.88v-1.45A28,28,0,1,1,32.59,150H30.18A27,27,0,0,0,47,125Z"/><path class="cls-2" d="M77,127.5A57.49,57.49,0,0,0,0,73.41V72.35A58.49,58.49,0,0,1,78,127.5,58.15,58.15,0,0,1,73.49,150H72.41A57.19,57.19,0,0,0,77,127.5Z"/></g></g></svg>