<svg xmlns="http://www.w3.org/2000/svg" viewBox="0 0 240 150"><defs><style>.cls-1{fill:#428777;}.cls-2{fill:#fff;opacity:0.47;}</style></defs><title>Asset 5</title><g id="Layer_2" data-name="Layer 2"><g id="Layer_1-2" data-name="Layer 1"><rect class="cls-1" width="240" height="150" rx="17.67"/><path class="cls-2" d="M144,127.5a76.49,76.49,0,0,1,96-74v-1A77.5,77.5,0,0,0,146.34,150h1A76.39,76.39,0,0,1,144,127.5Z"/><path class="cls-2" d="M193,125a27,27,0,0,1,47-18.12v-1.45A28,28,0,1,0,207.41,150h2.41A27,27,0,0,1,193,125Z"/><path class="cls-2" d="M163,127.5a57.49,57.49,0,0,1,77-54.09V72.35A58.48,58.48,0,0,0,166.51,150h1.08A57.19,57.19,0,0,1,163,127.5Z"/></g></g></svg>